M48
;Layer_Color=9474304
;FILE_FORMAT=4:3
METRIC,TZ
;TYPE=PLATED
T1F00S00C0.700
T2F00S00C0.711
T3F00S00C0.762
T4F00S00C0.900
T5F00S00C1.000
T6F00S00C1.300
;TYPE=NON_PLATED
T7F00S00C1.600
%
T01
X107442Y32614
Y40234
X105890Y54700
X113510
T02
X116967Y39014
X140386Y36982
X154190Y36093
X155423Y40945
X148412Y42875
X151994Y47371
X155690Y56642
X148213Y63758
X143180Y59690
X137236Y58166
X135220Y57058
X130937Y60731
X127025Y60884
X126314Y50622
X129819Y50267
X135788Y44247
X138659Y43307
X140360Y52578
X130875Y74001
X122758Y69139
X96466Y60122
X90500Y60096
X83947Y59334
X94183Y51816
T03
X80188Y35958
X132537Y30937
X137617
X142697
X155067Y31344
X160147
X165227
X164338Y71806
X169418
X159258
X152603Y71425
X147523
X142443
X80188Y41758
T04
X172651Y44549
Y47089
X172451Y54849
Y57389
X114376Y66548
Y69088
Y71628
T05
X99035Y36779
T06
X90820Y67100
X93360
X95900
T07
X122606Y65009
Y72009
M30
