G04*
G04 #@! TF.GenerationSoftware,Altium Limited,Altium Designer,18.0.12 (696)*
G04*
G04 Layer_Color=32896*
%FSLAX43Y43*%
%MOMM*%
G71*
G01*
G75*
%ADD10C,0.200*%
%ADD11C,0.000*%
%ADD13C,0.254*%
%ADD14C,0.127*%
%ADD16C,0.152*%
%ADD18C,0.198*%
D10*
X131826Y53883D02*
Y55083D01*
D11*
X160301Y43567D02*
G03*
X160911Y43567I305J0D01*
G01*
X133200Y75509D02*
X127200D01*
X133200Y61009D02*
X127200D01*
Y75509D01*
X133200Y61009D02*
Y72809D01*
X133200Y71397D02*
Y75509D01*
D13*
X130277Y56236D02*
Y57759D01*
X131038D01*
X131292Y57505D01*
Y56997D01*
X131038Y56743D01*
X130277D01*
X130784D02*
X131292Y56236D01*
X132816Y57759D02*
X132308Y57505D01*
X131800Y56997D01*
Y56490D01*
X132054Y56236D01*
X132562D01*
X132816Y56490D01*
Y56743D01*
X132562Y56997D01*
X131800D01*
X176403Y25400D02*
X76403D01*
Y75413D01*
X176403D02*
X76403D01*
X176403Y25400D02*
Y75413D01*
D14*
X111305Y37999D02*
Y42899D01*
X107405Y37999D02*
Y42899D01*
X111305D02*
X107405D01*
X111305Y37999D02*
X107405D01*
X111305Y53699D02*
X107405D01*
X111305Y58599D02*
X107405D01*
Y53699D02*
Y58599D01*
X111305Y53699D02*
Y58599D01*
X150956Y65500D02*
X148056D01*
X150956D02*
Y70800D01*
X148056D01*
Y65500D02*
Y70800D01*
X170956Y70850D02*
X168056D01*
Y65550D02*
Y70850D01*
X170956Y65550D02*
X168056D01*
X170956D02*
Y70850D01*
D16*
X157355Y41230D02*
Y42450D01*
X155450D01*
Y41230D02*
Y42450D01*
X157355Y41230D02*
X155450D01*
X157355Y36150D02*
Y37370D01*
X155450D01*
Y36150D02*
Y37370D01*
X157355Y36150D02*
X155450D01*
X163857D02*
Y37370D01*
X165762Y36150D02*
X163857D01*
X165762D02*
Y37370D01*
X163857D01*
Y41230D02*
Y42450D01*
X165762Y41230D02*
X163857D01*
X165762D02*
Y42450D01*
X163857D01*
Y35033D02*
X157355D01*
X163857D02*
Y43567D01*
X160911D01*
X160301D01*
X157355D01*
Y35033D02*
Y43567D01*
D18*
X167745Y35564D02*
X168192Y35832D01*
X168549Y35564D01*
X168906Y35742D01*
X168042Y42657D02*
X168488Y42925D01*
X168845Y42657D01*
X169202Y42836D01*
X150941Y35038D02*
X152548D01*
X151817Y42569D02*
Y40962D01*
X151014Y41765D02*
X152620D01*
M02*
