G04*
G04 #@! TF.GenerationSoftware,Altium Limited,Altium Designer,18.0.12 (696)*
G04*
G04 Layer_Color=8421504*
%FSLAX43Y43*%
%MOMM*%
G71*
G01*
G75*
%ADD11C,0.000*%
%ADD13C,0.254*%
%ADD14C,0.127*%
%ADD16C,0.152*%
%ADD18C,0.198*%
%ADD19R,1.100X1.400*%
%ADD20R,0.900X0.700*%
%ADD21R,1.300X1.000*%
%ADD22R,2.700X2.600*%
%ADD23R,2.100X2.700*%
%ADD24R,2.100X2.200*%
%ADD25R,2.100X2.000*%
%ADD26R,1.970X0.600*%
%ADD27R,1.524X1.016*%
%ADD28R,1.400X1.100*%
%ADD29R,1.100X1.700*%
%ADD30R,2.235X1.245*%
%ADD31R,0.800X0.900*%
%ADD32R,0.700X0.900*%
%ADD33R,1.530X2.210*%
D11*
X91895Y43567D02*
G03*
X92505Y43567I305J0D01*
G01*
X119606Y75509D02*
X125606D01*
X119606Y61009D02*
X125606D01*
Y75509D01*
X119606Y61009D02*
Y72809D01*
X119606Y71397D02*
Y75509D01*
D13*
X76403Y25400D02*
X176403D01*
Y75413D01*
X76403D02*
X176403D01*
X76403Y25400D02*
Y75413D01*
D14*
X141501Y37999D02*
Y42899D01*
X145401Y37999D02*
Y42899D01*
X141501D02*
X145401D01*
X141501Y37999D02*
X145401D01*
X141501Y53699D02*
X145401D01*
X141501Y58599D02*
X145401D01*
Y53699D02*
Y58599D01*
X141501Y53699D02*
Y58599D01*
X101850Y65500D02*
X104750D01*
X101850D02*
Y70800D01*
X104750D01*
Y65500D02*
Y70800D01*
X81850Y70850D02*
X84750D01*
Y65550D02*
Y70850D01*
X81850Y65550D02*
X84750D01*
X81850D02*
Y70850D01*
D16*
X95451Y41230D02*
Y42450D01*
X97356D01*
Y41230D02*
Y42450D01*
X95451Y41230D02*
X97356D01*
X95451Y36150D02*
Y37370D01*
X97356D01*
Y36150D02*
Y37370D01*
X95451Y36150D02*
X97356D01*
X88949D02*
Y37370D01*
X87044Y36150D02*
X88949D01*
X87044D02*
Y37370D01*
X88949D01*
Y41230D02*
Y42450D01*
X87044Y41230D02*
X88949D01*
X87044D02*
Y42450D01*
X88949D01*
Y35033D02*
X95451D01*
X88949D02*
Y43567D01*
X91895D01*
X92505D01*
X95451D01*
Y35033D02*
Y43567D01*
D18*
X85061Y35564D02*
X84614Y35832D01*
X84257Y35564D01*
X83900Y35742D01*
X84764Y42657D02*
X84318Y42925D01*
X83961Y42657D01*
X83604Y42836D01*
X101865Y35038D02*
X100259D01*
X100989Y42569D02*
Y40962D01*
X101793Y41765D02*
X100186D01*
D19*
X163156Y63703D02*
D03*
X164656D02*
D03*
X142354Y52273D02*
D03*
X143854D02*
D03*
X144260Y36982D02*
D03*
X142760D02*
D03*
X151677Y40945D02*
D03*
X150177D02*
D03*
X158037Y35992D02*
D03*
X159537D02*
D03*
X165799Y47371D02*
D03*
X164299D02*
D03*
D20*
X116942Y45899D02*
D03*
Y44399D02*
D03*
D21*
Y41123D02*
D03*
Y42723D02*
D03*
D22*
X123354Y59706D02*
D03*
D23*
X118558Y63809D02*
D03*
D24*
X118556Y73109D02*
D03*
X126656Y71209D02*
D03*
D25*
Y73909D02*
D03*
D26*
X140976Y42354D02*
D03*
Y41084D02*
D03*
Y39814D02*
D03*
Y38544D02*
D03*
X145926D02*
D03*
Y39814D02*
D03*
Y41084D02*
D03*
Y42354D02*
D03*
X145926Y58054D02*
D03*
Y56784D02*
D03*
Y55514D02*
D03*
Y54244D02*
D03*
X140976D02*
D03*
Y55514D02*
D03*
Y56784D02*
D03*
Y58054D02*
D03*
D27*
X158648Y56642D02*
D03*
Y58674D02*
D03*
X158852Y44323D02*
D03*
Y42291D02*
D03*
D28*
X157099Y62064D02*
D03*
Y63564D02*
D03*
X126238Y39587D02*
D03*
Y38087D02*
D03*
X158699Y49467D02*
D03*
Y47967D02*
D03*
D29*
X148993Y56718D02*
D03*
X151693D02*
D03*
X136166Y71222D02*
D03*
X138866D02*
D03*
X135708Y65710D02*
D03*
X138408D02*
D03*
D30*
X96594Y41840D02*
D03*
Y36760D02*
D03*
X87806D02*
D03*
Y41840D02*
D03*
D31*
X91875Y61824D02*
D03*
X90475D02*
D03*
X86998Y59334D02*
D03*
X85598D02*
D03*
X97866Y61747D02*
D03*
X96466D02*
D03*
D32*
X90817Y53924D02*
D03*
X92317D02*
D03*
X90944Y51841D02*
D03*
X92444D02*
D03*
D33*
X103300Y66100D02*
D03*
Y70200D02*
D03*
X83300Y70250D02*
D03*
Y66150D02*
D03*
M02*
