G04*
G04 #@! TF.GenerationSoftware,Altium Limited,Altium Designer,18.0.12 (696)*
G04*
G04 Layer_Color=16711935*
%FSLAX43Y43*%
%MOMM*%
G71*
G01*
G75*
%ADD11C,0.000*%
%ADD13C,0.254*%
%ADD14C,0.127*%
%ADD16C,0.152*%
%ADD18C,0.198*%
D11*
X91895Y43567D02*
G03*
X92505Y43567I305J0D01*
G01*
X119606Y75509D02*
X125606D01*
X119606Y61009D02*
X125606D01*
Y75509D01*
X119606Y61009D02*
Y72809D01*
X119606Y71397D02*
Y75509D01*
X91895Y43567D02*
G03*
X92505Y43567I305J0D01*
G01*
X119606Y75509D02*
X125606D01*
X119606Y61009D02*
X125606D01*
Y75509D01*
X119606Y61009D02*
Y72809D01*
X119606Y71397D02*
Y75509D01*
D13*
X76403Y25400D02*
X176403D01*
Y75413D01*
X76403D02*
X176403D01*
X76403Y25400D02*
Y75413D01*
Y25400D02*
X176403D01*
Y75413D01*
X76403D02*
X176403D01*
X76403Y25400D02*
Y75413D01*
D14*
X141501Y37999D02*
Y42899D01*
X145401Y37999D02*
Y42899D01*
X141501D02*
X145401D01*
X141501Y37999D02*
X145401D01*
X141501Y53699D02*
X145401D01*
X141501Y58599D02*
X145401D01*
Y53699D02*
Y58599D01*
X141501Y53699D02*
Y58599D01*
X101850Y65500D02*
X104750D01*
X101850D02*
Y70800D01*
X104750D01*
Y65500D02*
Y70800D01*
X81850Y70850D02*
X84750D01*
Y65550D02*
Y70850D01*
X81850Y65550D02*
X84750D01*
X81850D02*
Y70850D01*
X141501Y37999D02*
Y42899D01*
X145401Y37999D02*
Y42899D01*
X141501D02*
X145401D01*
X141501Y37999D02*
X145401D01*
X141501Y53699D02*
X145401D01*
X141501Y58599D02*
X145401D01*
Y53699D02*
Y58599D01*
X141501Y53699D02*
Y58599D01*
X101850Y65500D02*
X104750D01*
X101850D02*
Y70800D01*
X104750D01*
Y65500D02*
Y70800D01*
X81850Y70850D02*
X84750D01*
Y65550D02*
Y70850D01*
X81850Y65550D02*
X84750D01*
X81850D02*
Y70850D01*
D16*
X95451Y41230D02*
Y42450D01*
X97356D01*
Y41230D02*
Y42450D01*
X95451Y41230D02*
X97356D01*
X95451Y36150D02*
Y37370D01*
X97356D01*
Y36150D02*
Y37370D01*
X95451Y36150D02*
X97356D01*
X88949D02*
Y37370D01*
X87044Y36150D02*
X88949D01*
X87044D02*
Y37370D01*
X88949D01*
Y41230D02*
Y42450D01*
X87044Y41230D02*
X88949D01*
X87044D02*
Y42450D01*
X88949D01*
Y35033D02*
X95451D01*
X88949D02*
Y43567D01*
X91895D01*
X92505D01*
X95451D01*
Y35033D02*
Y43567D01*
Y41230D02*
Y42450D01*
X97356D01*
Y41230D02*
Y42450D01*
X95451Y41230D02*
X97356D01*
X95451Y36150D02*
Y37370D01*
X97356D01*
Y36150D02*
Y37370D01*
X95451Y36150D02*
X97356D01*
X88949D02*
Y37370D01*
X87044Y36150D02*
X88949D01*
X87044D02*
Y37370D01*
X88949D01*
Y41230D02*
Y42450D01*
X87044Y41230D02*
X88949D01*
X87044D02*
Y42450D01*
X88949D01*
Y35033D02*
X95451D01*
X88949D02*
Y43567D01*
X91895D01*
X92505D01*
X95451D01*
Y35033D02*
Y43567D01*
D18*
X85061Y35564D02*
X84614Y35832D01*
X84257Y35564D01*
X83900Y35742D01*
X84764Y42657D02*
X84318Y42925D01*
X83961Y42657D01*
X83604Y42836D01*
X101865Y35038D02*
X100259D01*
X100989Y42569D02*
Y40962D01*
X101793Y41765D02*
X100186D01*
X85061Y35564D02*
X84614Y35832D01*
X84257Y35564D01*
X83900Y35742D01*
X84764Y42657D02*
X84318Y42925D01*
X83961Y42657D01*
X83604Y42836D01*
X101865Y35038D02*
X100259D01*
X100989Y42569D02*
Y40962D01*
X101793Y41765D02*
X100186D01*
M02*
