G04*
G04 #@! TF.GenerationSoftware,Altium Limited,Altium Designer,18.0.12 (696)*
G04*
G04 Layer_Color=32768*
%FSLAX43Y43*%
%MOMM*%
G71*
G01*
G75*
%ADD11C,0.000*%
%ADD13C,0.254*%
%ADD14C,0.127*%
%ADD16C,0.152*%
%ADD18C,0.198*%
%ADD76C,0.100*%
D11*
X91895Y43567D02*
G03*
X92505Y43567I305J0D01*
G01*
X119606Y75509D02*
X125606D01*
X119606Y61009D02*
X125606D01*
Y75509D01*
X119606Y61009D02*
Y72809D01*
X119606Y71397D02*
Y75509D01*
D13*
X76403Y25400D02*
X176403D01*
Y75413D01*
X76403D02*
X176403D01*
X76403Y25400D02*
Y75413D01*
D14*
X141501Y37999D02*
Y42899D01*
X145401Y37999D02*
Y42899D01*
X141501D02*
X145401D01*
X141501Y37999D02*
X145401D01*
X141501Y53699D02*
X145401D01*
X141501Y58599D02*
X145401D01*
Y53699D02*
Y58599D01*
X141501Y53699D02*
Y58599D01*
X101850Y65500D02*
X104750D01*
X101850D02*
Y70800D01*
X104750D01*
Y65500D02*
Y70800D01*
X81850Y70850D02*
X84750D01*
Y65550D02*
Y70850D01*
X81850Y65550D02*
X84750D01*
X81850D02*
Y70850D01*
D16*
X95451Y41230D02*
Y42450D01*
X97356D01*
Y41230D02*
Y42450D01*
X95451Y41230D02*
X97356D01*
X95451Y36150D02*
Y37370D01*
X97356D01*
Y36150D02*
Y37370D01*
X95451Y36150D02*
X97356D01*
X88949D02*
Y37370D01*
X87044Y36150D02*
X88949D01*
X87044D02*
Y37370D01*
X88949D01*
Y41230D02*
Y42450D01*
X87044Y41230D02*
X88949D01*
X87044D02*
Y42450D01*
X88949D01*
Y35033D02*
X95451D01*
X88949D02*
Y43567D01*
X91895D01*
X92505D01*
X95451D01*
Y35033D02*
Y43567D01*
D18*
X85061Y35564D02*
X84614Y35832D01*
X84257Y35564D01*
X83900Y35742D01*
X84764Y42657D02*
X84318Y42925D01*
X83961Y42657D01*
X83604Y42836D01*
X101865Y35038D02*
X100259D01*
X100989Y42569D02*
Y40962D01*
X101793Y41765D02*
X100186D01*
D76*
X162506Y62903D02*
Y64503D01*
X165306Y62903D02*
Y64503D01*
X162506D02*
X165306D01*
X162506Y62903D02*
X165306D01*
X163406Y63703D02*
X164406D01*
X163906Y63203D02*
Y64203D01*
X116392Y46349D02*
X117492D01*
X116392Y43949D02*
X117492D01*
Y46349D01*
X116392Y43949D02*
Y46349D01*
X116942Y44674D02*
Y45624D01*
X116467Y45149D02*
X117417D01*
X116442Y41923D02*
X117442D01*
X116942Y41423D02*
Y42423D01*
X116192Y40523D02*
Y43323D01*
X117692Y40523D02*
Y43323D01*
X116192Y40523D02*
X117692D01*
X116192Y43323D02*
X117692D01*
X120980Y53983D02*
Y54983D01*
X120480Y54483D02*
X121480D01*
X119230Y53533D02*
X122730D01*
X119230Y55433D02*
X122730D01*
X119230Y53533D02*
Y55433D01*
X122730Y53533D02*
Y55433D01*
X141704Y51473D02*
Y53073D01*
X144504Y51473D02*
Y53073D01*
X141704D02*
X144504D01*
X141704Y51473D02*
X144504D01*
X142604Y52273D02*
X143604D01*
X143104Y51773D02*
Y52773D01*
X143510Y36482D02*
Y37482D01*
X143010Y36982D02*
X144010D01*
X142110Y36182D02*
X144910D01*
X142110Y37782D02*
X144910D01*
Y36182D02*
Y37782D01*
X142110Y36182D02*
Y37782D01*
X156599Y62814D02*
X157599D01*
X157099Y62314D02*
Y63314D01*
X156299Y61414D02*
Y64214D01*
X157899Y61414D02*
Y64214D01*
X156299Y61414D02*
X157899D01*
X156299Y64214D02*
X157899D01*
X125438Y40237D02*
X127038D01*
X125438Y37437D02*
X127038D01*
Y40237D01*
X125438Y37437D02*
Y40237D01*
X126238Y38337D02*
Y39337D01*
X125738Y38837D02*
X126738D01*
X152327Y40145D02*
Y41745D01*
X149527Y40145D02*
Y41745D01*
Y40145D02*
X152327D01*
X149527Y41745D02*
X152327D01*
X150427Y40945D02*
X151427D01*
X150927Y40445D02*
Y41445D01*
X157899Y50117D02*
X159499D01*
X157899Y47317D02*
X159499D01*
Y50117D01*
X157899Y47317D02*
Y50117D01*
X158699Y48217D02*
Y49217D01*
X158199Y48717D02*
X159199D01*
X157387Y35192D02*
Y36792D01*
X160187Y35192D02*
Y36792D01*
X157387D02*
X160187D01*
X157387Y35192D02*
X160187D01*
X158287Y35992D02*
X159287D01*
X158787Y35492D02*
Y36492D01*
X165049Y46871D02*
Y47871D01*
X164549Y47371D02*
X165549D01*
X163649Y46571D02*
X166449D01*
X163649Y48171D02*
X166449D01*
Y46571D02*
Y48171D01*
X163649Y46571D02*
Y48171D01*
X150343Y56218D02*
Y57218D01*
X149843Y56718D02*
X150843D01*
X148343Y57668D02*
X152343D01*
X148343Y55768D02*
X152343D01*
X148343D02*
Y57668D01*
X152343Y55768D02*
Y57668D01*
X91175Y61349D02*
Y62299D01*
X90700Y61824D02*
X91650D01*
X89975Y61274D02*
X92375D01*
X89975Y62374D02*
X92375D01*
Y61274D02*
Y62374D01*
X89975Y61274D02*
Y62374D01*
X86298Y58859D02*
Y59809D01*
X85823Y59334D02*
X86773D01*
X85098Y58784D02*
X87498D01*
X85098Y59884D02*
X87498D01*
Y58784D02*
Y59884D01*
X85098Y58784D02*
Y59884D01*
X91567Y53449D02*
Y54399D01*
X91092Y53924D02*
X92042D01*
X90367Y54474D02*
X92767D01*
X90367Y53374D02*
X92767D01*
X90367D02*
Y54474D01*
X92767Y53374D02*
Y54474D01*
X91694Y51366D02*
Y52316D01*
X91219Y51841D02*
X92169D01*
X90494Y52391D02*
X92894D01*
X90494Y51291D02*
X92894D01*
X90494D02*
Y52391D01*
X92894Y51291D02*
Y52391D01*
X97166Y61272D02*
Y62222D01*
X96691Y61747D02*
X97641D01*
X95966Y61197D02*
X98366D01*
X95966Y62297D02*
X98366D01*
Y61197D02*
Y62297D01*
X95966Y61197D02*
Y62297D01*
X137516Y70722D02*
Y71722D01*
X137016Y71222D02*
X138016D01*
X135516Y72172D02*
X139516D01*
X135516Y70272D02*
X139516D01*
X135516D02*
Y72172D01*
X139516Y70272D02*
Y72172D01*
X137058Y65210D02*
Y66210D01*
X136558Y65710D02*
X137558D01*
X135058Y66660D02*
X139058D01*
X135058Y64760D02*
X139058D01*
X135058D02*
Y66660D01*
X139058Y64760D02*
Y66660D01*
M02*
