G04*
G04 #@! TF.GenerationSoftware,Altium Limited,Altium Designer,18.0.12 (696)*
G04*
G04 Layer_Color=2752767*
%FSLAX43Y43*%
%MOMM*%
G71*
G01*
G75*
%ADD11C,0.000*%
%ADD13C,0.254*%
%ADD14C,0.127*%
%ADD16C,0.152*%
%ADD18C,0.198*%
%ADD77C,0.051*%
%ADD78C,0.068*%
D11*
X91895Y43567D02*
G03*
X92505Y43567I305J0D01*
G01*
X119606Y75509D02*
X125606D01*
X119606Y61009D02*
X125606D01*
Y75509D01*
X119606Y61009D02*
Y72809D01*
X119606Y71397D02*
Y75509D01*
D13*
X76403Y25400D02*
X176403D01*
Y75413D01*
X76403D02*
X176403D01*
X76403Y25400D02*
Y75413D01*
D14*
X141501Y37999D02*
Y42899D01*
X145401Y37999D02*
Y42899D01*
X141501D02*
X145401D01*
X141501Y37999D02*
X145401D01*
X141501Y53699D02*
X145401D01*
X141501Y58599D02*
X145401D01*
Y53699D02*
Y58599D01*
X141501Y53699D02*
Y58599D01*
X101850Y65500D02*
X104750D01*
X101850D02*
Y70800D01*
X104750D01*
Y65500D02*
Y70800D01*
X81850Y70850D02*
X84750D01*
Y65550D02*
Y70850D01*
X81850Y65550D02*
X84750D01*
X81850D02*
Y70850D01*
D16*
X95451Y41230D02*
Y42450D01*
X97356D01*
Y41230D02*
Y42450D01*
X95451Y41230D02*
X97356D01*
X95451Y36150D02*
Y37370D01*
X97356D01*
Y36150D02*
Y37370D01*
X95451Y36150D02*
X97356D01*
X88949D02*
Y37370D01*
X87044Y36150D02*
X88949D01*
X87044D02*
Y37370D01*
X88949D01*
Y41230D02*
Y42450D01*
X87044Y41230D02*
X88949D01*
X87044D02*
Y42450D01*
X88949D01*
Y35033D02*
X95451D01*
X88949D02*
Y43567D01*
X91895D01*
X92505D01*
X95451D01*
Y35033D02*
Y43567D01*
D18*
X85061Y35564D02*
X84614Y35832D01*
X84257Y35564D01*
X83900Y35742D01*
X84764Y42657D02*
X84318Y42925D01*
X83961Y42657D01*
X83604Y42836D01*
X101865Y35038D02*
X100259D01*
X100989Y42569D02*
Y40962D01*
X101793Y41765D02*
X100186D01*
D77*
X142494Y30734D02*
Y31140D01*
X142900D01*
Y30734D01*
X142494D01*
X137414D02*
Y31140D01*
X137820D01*
Y30734D01*
X137414D01*
X132334D02*
Y31140D01*
X132740D01*
Y30734D01*
X132334D01*
X165024Y31140D02*
Y31547D01*
X165430D01*
Y31140D01*
X165024D01*
X159944D02*
Y31547D01*
X160350D01*
Y31140D01*
X159944D01*
X154864D02*
Y31547D01*
X155270D01*
Y31140D01*
X154864D01*
X169215Y71603D02*
Y72009D01*
X169621D01*
Y71603D01*
X169215D01*
X164135D02*
Y72009D01*
X164541D01*
Y71603D01*
X164135D01*
X159055D02*
Y72009D01*
X159461D01*
Y71603D01*
X159055D01*
X152400Y71222D02*
Y71628D01*
X152806D01*
Y71222D01*
X152400D01*
X147320D02*
Y71628D01*
X147726D01*
Y71222D01*
X147320D01*
X142240D02*
Y71628D01*
X142646D01*
Y71222D01*
X142240D01*
X122606Y64806D02*
X122403Y65212D01*
X122809D01*
X122606Y64806D01*
Y71806D02*
X122403Y72212D01*
X122809D01*
X122606Y71806D01*
X114376Y71425D02*
X114478Y71526D01*
X114579D01*
X114478Y71628D01*
X114579Y71730D01*
X114478D01*
X114376Y71831D01*
X114275Y71730D01*
X114173D01*
X114275Y71628D01*
X114173Y71526D01*
X114275D01*
X114376Y71425D01*
Y68885D02*
X114478Y68986D01*
X114579D01*
X114478Y69088D01*
X114579Y69190D01*
X114478D01*
X114376Y69291D01*
X114275Y69190D01*
X114173D01*
X114275Y69088D01*
X114173Y68986D01*
X114275D01*
X114376Y68885D01*
Y66345D02*
X114478Y66446D01*
X114579D01*
X114478Y66548D01*
X114579Y66650D01*
X114478D01*
X114376Y66751D01*
X114275Y66650D01*
X114173D01*
X114275Y66548D01*
X114173Y66446D01*
X114275D01*
X114376Y66345D01*
X79985Y35754D02*
Y36161D01*
X80391D01*
Y35754D01*
X79985D01*
Y41554D02*
Y41961D01*
X80391D01*
Y41554D01*
X79985D01*
X90617Y66897D02*
X90718Y67100D01*
X90617Y67303D01*
X90820Y67202D01*
X91023Y67303D01*
X90922Y67100D01*
X91023Y66897D01*
X90820Y66998D01*
X90617Y66897D01*
X93157D02*
X93258Y67100D01*
X93157Y67303D01*
X93360Y67202D01*
X93563Y67303D01*
X93462Y67100D01*
X93563Y66897D01*
X93360Y66998D01*
X93157Y66897D01*
X95697D02*
X95798Y67100D01*
X95697Y67303D01*
X95900Y67202D01*
X96103Y67303D01*
X96002Y67100D01*
X96103Y66897D01*
X95900Y66998D01*
X95697Y66897D01*
X172451Y57186D02*
X172552Y57288D01*
X172654D01*
X172552Y57389D01*
X172654Y57491D01*
X172552D01*
X172451Y57592D01*
X172349Y57491D01*
X172248D01*
X172349Y57389D01*
X172248Y57288D01*
X172349D01*
X172451Y57186D01*
Y54646D02*
X172552Y54748D01*
X172654D01*
X172552Y54849D01*
X172654Y54951D01*
X172552D01*
X172451Y55052D01*
X172349Y54951D01*
X172248D01*
X172349Y54849D01*
X172248Y54748D01*
X172349D01*
X172451Y54646D01*
X172651Y46886D02*
X172752Y46988D01*
X172854D01*
X172752Y47089D01*
X172854Y47191D01*
X172752D01*
X172651Y47292D01*
X172549Y47191D01*
X172448D01*
X172549Y47089D01*
X172448Y46988D01*
X172549D01*
X172651Y46886D01*
Y44346D02*
X172752Y44448D01*
X172854D01*
X172752Y44549D01*
X172854Y44651D01*
X172752D01*
X172651Y44752D01*
X172549Y44651D01*
X172448D01*
X172549Y44549D01*
X172448Y44448D01*
X172549D01*
X172651Y44346D01*
X130835Y60630D02*
Y60528D01*
X131039D01*
Y60630D01*
X131140D01*
Y60833D01*
X131039D01*
Y60935D01*
X130835D01*
Y60833D01*
X130734D01*
Y60630D01*
X130835D01*
X126924Y60782D02*
Y60681D01*
X127127D01*
Y60782D01*
X127229D01*
Y60985D01*
X127127D01*
Y61087D01*
X126924D01*
Y60985D01*
X126822D01*
Y60782D01*
X126924D01*
X94082Y51714D02*
Y51613D01*
X94285D01*
Y51714D01*
X94386D01*
Y51918D01*
X94285D01*
Y52019D01*
X94082D01*
Y51918D01*
X93980D01*
Y51714D01*
X94082D01*
X83845Y59233D02*
Y59131D01*
X84049D01*
Y59233D01*
X84150D01*
Y59436D01*
X84049D01*
Y59538D01*
X83845D01*
Y59436D01*
X83744D01*
Y59233D01*
X83845D01*
X90399Y59995D02*
Y59893D01*
X90602D01*
Y59995D01*
X90703D01*
Y60198D01*
X90602D01*
Y60300D01*
X90399D01*
Y60198D01*
X90297D01*
Y59995D01*
X90399D01*
X96365Y60020D02*
Y59919D01*
X96568D01*
Y60020D01*
X96669D01*
Y60223D01*
X96568D01*
Y60325D01*
X96365D01*
Y60223D01*
X96263D01*
Y60020D01*
X96365D01*
X98831Y36576D02*
X98933D01*
X99035Y36678D01*
X99136Y36576D01*
X99238D01*
Y36678D01*
X99136Y36779D01*
X99238Y36881D01*
Y36982D01*
X99136D01*
X99035Y36881D01*
X98933Y36982D01*
X98831D01*
Y36881D01*
X98933Y36779D01*
X98831Y36678D01*
Y36576D01*
X116865Y38913D02*
Y38811D01*
X117069D01*
Y38913D01*
X117170D01*
Y39116D01*
X117069D01*
Y39218D01*
X116865D01*
Y39116D01*
X116764D01*
Y38913D01*
X116865D01*
X130773Y73900D02*
Y73798D01*
X130977D01*
Y73900D01*
X131078D01*
Y74103D01*
X130977D01*
Y74205D01*
X130773D01*
Y74103D01*
X130672D01*
Y73900D01*
X130773D01*
X122657Y69037D02*
Y68936D01*
X122860D01*
Y69037D01*
X122961D01*
Y69240D01*
X122860D01*
Y69342D01*
X122657D01*
Y69240D01*
X122555D01*
Y69037D01*
X122657D01*
X143078Y59588D02*
Y59487D01*
X143281D01*
Y59588D01*
X143383D01*
Y59792D01*
X143281D01*
Y59893D01*
X143078D01*
Y59792D01*
X142977D01*
Y59588D01*
X143078D01*
X140259Y52476D02*
Y52375D01*
X140462D01*
Y52476D01*
X140564D01*
Y52680D01*
X140462D01*
Y52781D01*
X140259D01*
Y52680D01*
X140157D01*
Y52476D01*
X140259D01*
X135687Y44145D02*
Y44044D01*
X135890D01*
Y44145D01*
X135992D01*
Y44348D01*
X135890D01*
Y44450D01*
X135687D01*
Y44348D01*
X135585D01*
Y44145D01*
X135687D01*
X138557Y43205D02*
Y43104D01*
X138760D01*
Y43205D01*
X138862D01*
Y43409D01*
X138760D01*
Y43510D01*
X138557D01*
Y43409D01*
X138455D01*
Y43205D01*
X138557D01*
X154088Y35992D02*
Y35890D01*
X154292D01*
Y35992D01*
X154393D01*
Y36195D01*
X154292D01*
Y36297D01*
X154088D01*
Y36195D01*
X153987D01*
Y35992D01*
X154088D01*
X129718Y50165D02*
Y50063D01*
X129921D01*
Y50165D01*
X130023D01*
Y50368D01*
X129921D01*
Y50470D01*
X129718D01*
Y50368D01*
X129616D01*
Y50165D01*
X129718D01*
X126213Y50521D02*
Y50419D01*
X126416D01*
Y50521D01*
X126517D01*
Y50724D01*
X126416D01*
Y50825D01*
X126213D01*
Y50724D01*
X126111D01*
Y50521D01*
X126213D01*
X148311Y42774D02*
Y42672D01*
X148514D01*
Y42774D01*
X148615D01*
Y42977D01*
X148514D01*
Y43078D01*
X148311D01*
Y42977D01*
X148209D01*
Y42774D01*
X148311D01*
X151892Y47269D02*
Y47168D01*
X152095D01*
Y47269D01*
X152197D01*
Y47473D01*
X152095D01*
Y47574D01*
X151892D01*
Y47473D01*
X151790D01*
Y47269D01*
X151892D01*
X140284Y36881D02*
Y36779D01*
X140487D01*
Y36881D01*
X140589D01*
Y37084D01*
X140487D01*
Y37186D01*
X140284D01*
Y37084D01*
X140183D01*
Y36881D01*
X140284D01*
X155588Y56540D02*
Y56439D01*
X155792D01*
Y56540D01*
X155893D01*
Y56744D01*
X155792D01*
Y56845D01*
X155588D01*
Y56744D01*
X155487D01*
Y56540D01*
X155588D01*
X155321Y40843D02*
Y40742D01*
X155524D01*
Y40843D01*
X155626D01*
Y41046D01*
X155524D01*
Y41148D01*
X155321D01*
Y41046D01*
X155219D01*
Y40843D01*
X155321D01*
X137135Y58064D02*
Y57963D01*
X137338D01*
Y58064D01*
X137439D01*
Y58268D01*
X137338D01*
Y58369D01*
X137135D01*
Y58268D01*
X137033D01*
Y58064D01*
X137135D01*
X135118Y56956D02*
Y56855D01*
X135322D01*
Y56956D01*
X135423D01*
Y57160D01*
X135322D01*
Y57261D01*
X135118D01*
Y57160D01*
X135017D01*
Y56956D01*
X135118D01*
X148111Y63656D02*
Y63555D01*
X148314D01*
Y63656D01*
X148416D01*
Y63859D01*
X148314D01*
Y63961D01*
X148111D01*
Y63859D01*
X148010D01*
Y63656D01*
X148111D01*
D78*
X107645Y32614D02*
G03*
X107645Y32614I-203J0D01*
G01*
Y40234D02*
G03*
X107645Y40234I-203J0D01*
G01*
X106093Y54700D02*
G03*
X106093Y54700I-203J0D01*
G01*
X113713D02*
G03*
X113713Y54700I-203J0D01*
G01*
M02*
