G04*
G04 #@! TF.GenerationSoftware,Altium Limited,Altium Designer,18.0.12 (696)*
G04*
G04 Layer_Color=16711935*
%FSLAX43Y43*%
%MOMM*%
G71*
G01*
G75*
%ADD11C,0.000*%
%ADD13C,0.254*%
%ADD14C,0.127*%
%ADD16C,0.152*%
%ADD18C,0.198*%
%ADD76C,0.100*%
D11*
X91895Y43567D02*
G03*
X92505Y43567I305J0D01*
G01*
X119606Y75509D02*
X125606D01*
X119606Y61009D02*
X125606D01*
Y75509D01*
X119606Y61009D02*
Y72809D01*
X119606Y71397D02*
Y75509D01*
D13*
X76403Y25400D02*
X176403D01*
Y75413D01*
X76403D02*
X176403D01*
X76403Y25400D02*
Y75413D01*
D14*
X141501Y37999D02*
Y42899D01*
X145401Y37999D02*
Y42899D01*
X141501D02*
X145401D01*
X141501Y37999D02*
X145401D01*
X141501Y53699D02*
X145401D01*
X141501Y58599D02*
X145401D01*
Y53699D02*
Y58599D01*
X141501Y53699D02*
Y58599D01*
X101850Y65500D02*
X104750D01*
X101850D02*
Y70800D01*
X104750D01*
Y65500D02*
Y70800D01*
X81850Y70850D02*
X84750D01*
Y65550D02*
Y70850D01*
X81850Y65550D02*
X84750D01*
X81850D02*
Y70850D01*
D16*
X95451Y41230D02*
Y42450D01*
X97356D01*
Y41230D02*
Y42450D01*
X95451Y41230D02*
X97356D01*
X95451Y36150D02*
Y37370D01*
X97356D01*
Y36150D02*
Y37370D01*
X95451Y36150D02*
X97356D01*
X88949D02*
Y37370D01*
X87044Y36150D02*
X88949D01*
X87044D02*
Y37370D01*
X88949D01*
Y41230D02*
Y42450D01*
X87044Y41230D02*
X88949D01*
X87044D02*
Y42450D01*
X88949D01*
Y35033D02*
X95451D01*
X88949D02*
Y43567D01*
X91895D01*
X92505D01*
X95451D01*
Y35033D02*
Y43567D01*
D18*
X85061Y35564D02*
X84614Y35832D01*
X84257Y35564D01*
X83900Y35742D01*
X84764Y42657D02*
X84318Y42925D01*
X83961Y42657D01*
X83604Y42836D01*
X101865Y35038D02*
X100259D01*
X100989Y42569D02*
Y40962D01*
X101793Y41765D02*
X100186D01*
D76*
X162806Y62978D02*
Y64428D01*
X165006Y62978D02*
Y64428D01*
X162806D02*
X165006D01*
X162806Y62978D02*
X165006D01*
X116467Y45999D02*
X117417D01*
X116467Y44299D02*
X117417D01*
Y45999D01*
X116467Y44299D02*
Y45999D01*
X116242Y40848D02*
Y42998D01*
X117642Y40848D02*
Y42998D01*
X116242Y40848D02*
X117642D01*
X116242Y42998D02*
X117642D01*
X119905Y53783D02*
X122055D01*
X119905Y55183D02*
X122055D01*
X119905Y53783D02*
Y55183D01*
X122055Y53783D02*
Y55183D01*
X142004Y51548D02*
Y52998D01*
X144204Y51548D02*
Y52998D01*
X142004D02*
X144204D01*
X142004Y51548D02*
X144204D01*
X142410Y36257D02*
X144610D01*
X142410Y37707D02*
X144610D01*
Y36257D02*
Y37707D01*
X142410Y36257D02*
Y37707D01*
X156374Y61714D02*
Y63914D01*
X157824Y61714D02*
Y63914D01*
X156374Y61714D02*
X157824D01*
X156374Y63914D02*
X157824D01*
X125513Y39937D02*
X126963D01*
X125513Y37737D02*
X126963D01*
Y39937D01*
X125513Y37737D02*
Y39937D01*
X152027Y40220D02*
Y41670D01*
X149827Y40220D02*
Y41670D01*
Y40220D02*
X152027D01*
X149827Y41670D02*
X152027D01*
X157974Y49817D02*
X159424D01*
X157974Y47617D02*
X159424D01*
Y49817D01*
X157974Y47617D02*
Y49817D01*
X157687Y35267D02*
Y36717D01*
X159887Y35267D02*
Y36717D01*
X157687D02*
X159887D01*
X157687Y35267D02*
X159887D01*
X163949Y46646D02*
X166149D01*
X163949Y48096D02*
X166149D01*
Y46646D02*
Y48096D01*
X163949Y46646D02*
Y48096D01*
X148643Y57618D02*
X152043D01*
X148643Y55818D02*
X152043D01*
X148643D02*
Y57618D01*
X152043Y55818D02*
Y57618D01*
X90300Y61349D02*
X92050D01*
X90300Y62299D02*
X92050D01*
Y61349D02*
Y62299D01*
X90300Y61349D02*
Y62299D01*
X85423Y58859D02*
X87173D01*
X85423Y59809D02*
X87173D01*
Y58859D02*
Y59809D01*
X85423Y58859D02*
Y59809D01*
X90717Y54399D02*
X92417D01*
X90717Y53449D02*
X92417D01*
X90717D02*
Y54399D01*
X92417Y53449D02*
Y54399D01*
X90844Y52316D02*
X92544D01*
X90844Y51366D02*
X92544D01*
X90844D02*
Y52316D01*
X92544Y51366D02*
Y52316D01*
X96291Y61272D02*
X98041D01*
X96291Y62222D02*
X98041D01*
Y61272D02*
Y62222D01*
X96291Y61272D02*
Y62222D01*
X135816Y72122D02*
X139216D01*
X135816Y70322D02*
X139216D01*
X135816D02*
Y72122D01*
X139216Y70322D02*
Y72122D01*
X135358Y66610D02*
X138758D01*
X135358Y64810D02*
X138758D01*
X135358D02*
Y66610D01*
X138758Y64810D02*
Y66610D01*
M02*
