G04*
G04 #@! TF.GenerationSoftware,Altium Limited,Altium Designer,18.0.12 (696)*
G04*
G04 Layer_Color=16711935*
%FSLAX43Y43*%
%MOMM*%
G71*
G01*
G75*
%ADD11C,0.000*%
%ADD13C,0.254*%
%ADD14C,0.127*%
%ADD16C,0.152*%
%ADD18C,0.198*%
%ADD49C,1.727*%
%ADD50C,1.403*%
%ADD51R,1.403X1.403*%
%ADD52R,1.403X1.403*%
%ADD53C,1.803*%
%ADD54R,1.703X1.703*%
%ADD55C,1.703*%
%ADD56R,2.153X2.153*%
%ADD57C,2.153*%
%ADD58C,1.473*%
%ADD74R,1.403X1.603*%
D11*
X91895Y43567D02*
G03*
X92505Y43567I305J0D01*
G01*
X119606Y75509D02*
X125606D01*
X119606Y61009D02*
X125606D01*
Y75509D01*
X119606Y61009D02*
Y72809D01*
X119606Y71397D02*
Y75509D01*
D13*
X76403Y25400D02*
X176403D01*
Y75413D01*
X76403D02*
X176403D01*
X76403Y25400D02*
Y75413D01*
D14*
X141501Y37999D02*
Y42899D01*
X145401Y37999D02*
Y42899D01*
X141501D02*
X145401D01*
X141501Y37999D02*
X145401D01*
X141501Y53699D02*
X145401D01*
X141501Y58599D02*
X145401D01*
Y53699D02*
Y58599D01*
X141501Y53699D02*
Y58599D01*
X101850Y65500D02*
X104750D01*
X101850D02*
Y70800D01*
X104750D01*
Y65500D02*
Y70800D01*
X81850Y70850D02*
X84750D01*
Y65550D02*
Y70850D01*
X81850Y65550D02*
X84750D01*
X81850D02*
Y70850D01*
D16*
X95451Y41230D02*
Y42450D01*
X97356D01*
Y41230D02*
Y42450D01*
X95451Y41230D02*
X97356D01*
X95451Y36150D02*
Y37370D01*
X97356D01*
Y36150D02*
Y37370D01*
X95451Y36150D02*
X97356D01*
X88949D02*
Y37370D01*
X87044Y36150D02*
X88949D01*
X87044D02*
Y37370D01*
X88949D01*
Y41230D02*
Y42450D01*
X87044Y41230D02*
X88949D01*
X87044D02*
Y42450D01*
X88949D01*
Y35033D02*
X95451D01*
X88949D02*
Y43567D01*
X91895D01*
X92505D01*
X95451D01*
Y35033D02*
Y43567D01*
D18*
X85061Y35564D02*
X84614Y35832D01*
X84257Y35564D01*
X83900Y35742D01*
X84764Y42657D02*
X84318Y42925D01*
X83961Y42657D01*
X83604Y42836D01*
X101865Y35038D02*
X100259D01*
X100989Y42569D02*
Y40962D01*
X101793Y41765D02*
X100186D01*
D49*
X142697Y30937D02*
D03*
X137617D02*
D03*
X132537D02*
D03*
X165227Y31344D02*
D03*
X160147D02*
D03*
X155067D02*
D03*
X169418Y71806D02*
D03*
X164338D02*
D03*
X159258D02*
D03*
X152603Y71425D02*
D03*
X147523D02*
D03*
X142443D02*
D03*
X80188Y35958D02*
D03*
Y41758D02*
D03*
D50*
X107442Y32614D02*
D03*
X105890Y54700D02*
D03*
D51*
X107442Y40234D02*
D03*
D52*
X113510Y54700D02*
D03*
D53*
X122606Y65009D02*
D03*
Y72009D02*
D03*
D54*
X114376Y71628D02*
D03*
X172451Y57389D02*
D03*
X172651Y47089D02*
D03*
D55*
X114376Y69088D02*
D03*
Y66548D02*
D03*
X172451Y54849D02*
D03*
X172651Y44549D02*
D03*
D56*
X90820Y67100D02*
D03*
D57*
X93360D02*
D03*
X95900D02*
D03*
D58*
X130937Y60731D02*
D03*
X127025Y60884D02*
D03*
X94183Y51816D02*
D03*
X83947Y59334D02*
D03*
X90500Y60096D02*
D03*
X96466Y60122D02*
D03*
X99035Y36779D02*
D03*
X116967Y39014D02*
D03*
X130875Y74001D02*
D03*
X122758Y69139D02*
D03*
X143180Y59690D02*
D03*
X140360Y52578D02*
D03*
X135788Y44247D02*
D03*
X138659Y43307D02*
D03*
X154190Y36093D02*
D03*
X129819Y50267D02*
D03*
X126314Y50622D02*
D03*
X148412Y42875D02*
D03*
X151994Y47371D02*
D03*
X140386Y36982D02*
D03*
X155690Y56642D02*
D03*
X155423Y40945D02*
D03*
X137236Y58166D02*
D03*
X135220Y57058D02*
D03*
X148213Y63758D02*
D03*
D74*
X120080Y54483D02*
D03*
X121880D02*
D03*
M02*
