G04*
G04 #@! TF.GenerationSoftware,Altium Limited,Altium Designer,18.0.12 (696)*
G04*
G04 Layer_Color=65535*
%FSLAX43Y43*%
%MOMM*%
G71*
G01*
G75*
%ADD10C,0.200*%
%ADD11C,0.000*%
%ADD12C,0.250*%
%ADD13C,0.254*%
%ADD14C,0.127*%
%ADD15C,0.203*%
%ADD16C,0.152*%
%ADD17C,0.150*%
%ADD18C,0.198*%
D10*
X115062Y36424D02*
G03*
X115062Y36424I-7620J0D01*
G01*
X117320Y54700D02*
G03*
X117320Y54700I-7620J0D01*
G01*
X139301Y42354D02*
G03*
X139301Y42354I-100J0D01*
G01*
Y58054D02*
G03*
X139301Y58054I-100J0D01*
G01*
X103400Y64404D02*
G03*
X103400Y64404I-100J0D01*
G01*
X83400Y71946D02*
G03*
X83400Y71946I-100J0D01*
G01*
X89422Y67099D02*
G03*
X89422Y67099I-112J0D01*
G01*
X117292Y44949D02*
Y45349D01*
X116592Y44949D02*
Y45349D01*
X116392Y41923D02*
X117492D01*
X113106Y65278D02*
Y72898D01*
Y65278D02*
X115646D01*
Y72898D01*
X113106D02*
X115646D01*
X149943Y57468D02*
X150743D01*
X149943Y55968D02*
X150743D01*
X91367Y54274D02*
X91767D01*
X91367Y53574D02*
X91767D01*
X91494Y52191D02*
X91894D01*
X91494Y51491D02*
X91894D01*
X137116Y71972D02*
X137916D01*
X137116Y70472D02*
X137916D01*
X171051Y53449D02*
Y58789D01*
X173851Y53449D02*
Y58789D01*
X171051Y53449D02*
X173851D01*
X171051Y58789D02*
X173851D01*
X136658Y66460D02*
X137458D01*
X136658Y64960D02*
X137458D01*
X171251Y43149D02*
Y48489D01*
X174051Y43149D02*
Y48489D01*
X171251Y43149D02*
X174051D01*
X171251Y48489D02*
X174051D01*
D11*
X91895Y43567D02*
G03*
X92505Y43567I305J0D01*
G01*
X91895D02*
G03*
X92505Y43567I305J0D01*
G01*
X119606Y75509D02*
X125606D01*
X119606Y61009D02*
X125606D01*
Y75509D01*
X119606Y61009D02*
Y72809D01*
X119606Y71397D02*
Y75509D01*
D12*
X174626Y57389D02*
G03*
X174626Y57389I-125J0D01*
G01*
X174826Y47089D02*
G03*
X174826Y47089I-125J0D01*
G01*
D13*
X145212Y28397D02*
Y30937D01*
X129997Y28397D02*
Y30937D01*
Y28397D02*
X145212D01*
Y30937D02*
Y33477D01*
X129997D02*
X145212D01*
X129997Y30937D02*
Y33477D01*
X167742Y28804D02*
Y31344D01*
X152527Y28804D02*
Y31344D01*
Y28804D02*
X167742D01*
Y31344D02*
Y33884D01*
X152527D02*
X167742D01*
X152527Y31344D02*
Y33884D01*
X171933Y69266D02*
Y71806D01*
X156718Y69266D02*
Y71806D01*
Y69266D02*
X171933D01*
Y71806D02*
Y74346D01*
X156718D02*
X171933D01*
X156718Y71806D02*
Y74346D01*
X155118Y68885D02*
Y71425D01*
X139903Y68885D02*
Y71425D01*
Y68885D02*
X155118D01*
Y71425D02*
Y73965D01*
X139903D02*
X155118D01*
X139903Y71425D02*
Y73965D01*
X145491Y68427D02*
Y67411D01*
X145999Y66904D01*
X146507Y67411D01*
Y68427D01*
X147015Y66904D02*
X147523D01*
X147269D01*
Y68427D01*
X147015Y68173D01*
X115545Y43942D02*
X114021D01*
Y44704D01*
X114275Y44958D01*
X114783D01*
X115037Y44704D01*
Y43942D01*
Y44450D02*
X115545Y44958D01*
Y46227D02*
X114021D01*
X114783Y45466D01*
Y46481D01*
X119862Y43180D02*
X118339D01*
Y42418D01*
X118593Y42164D01*
X119608D01*
X119862Y42418D01*
Y43180D01*
X119608Y41656D02*
X119862Y41403D01*
Y40895D01*
X119608Y40641D01*
X119354D01*
X119100Y40895D01*
Y41149D01*
Y40895D01*
X118846Y40641D01*
X118593D01*
X118339Y40895D01*
Y41403D01*
X118593Y41656D01*
X143332Y39852D02*
X143078Y40106D01*
X142570D01*
X142316Y39852D01*
Y38837D01*
X142570Y38583D01*
X143078D01*
X143332Y38837D01*
X143840Y40106D02*
X144855D01*
Y39852D01*
X143840Y38837D01*
Y38583D01*
X142265Y49809D02*
X142011Y50063D01*
X141503D01*
X141249Y49809D01*
Y48793D01*
X141503Y48539D01*
X142011D01*
X142265Y48793D01*
X142773Y48539D02*
X143281D01*
X143027D01*
Y50063D01*
X142773Y49809D01*
X139260Y45452D02*
Y44183D01*
X139514Y43929D01*
X140022D01*
X140275Y44183D01*
Y45452D01*
X141799Y43929D02*
X140783D01*
X141799Y44945D01*
Y45199D01*
X141545Y45452D01*
X141037D01*
X140783Y45199D01*
X114274Y75285D02*
X113766D01*
X114020D01*
Y74016D01*
X113766Y73762D01*
X113513D01*
X113259Y74016D01*
X115798Y73762D02*
X114782D01*
X115798Y74777D01*
Y75031D01*
X115544Y75285D01*
X115036D01*
X114782Y75031D01*
X97891Y31546D02*
X97637Y31800D01*
X97130D01*
X96876Y31546D01*
Y30531D01*
X97130Y30277D01*
X97637D01*
X97891Y30531D01*
X98399Y30277D02*
X98907D01*
X98653D01*
Y31800D01*
X98399Y31546D01*
X100684Y31800D02*
X99669D01*
Y31039D01*
X100177Y31292D01*
X100430D01*
X100684Y31039D01*
Y30531D01*
X100430Y30277D01*
X99923D01*
X99669Y30531D01*
X139260Y61153D02*
Y59883D01*
X139514Y59629D01*
X140022D01*
X140275Y59883D01*
Y61153D01*
X140783Y59629D02*
X141291D01*
X141037D01*
Y61153D01*
X140783Y60899D01*
X100609Y49377D02*
X100355Y49631D01*
X99847D01*
X99593Y49377D01*
Y48362D01*
X99847Y48108D01*
X100355D01*
X100609Y48362D01*
X101117Y48108D02*
X101625D01*
X101371D01*
Y49631D01*
X101117Y49377D01*
X103148Y48108D02*
Y49631D01*
X102386Y48869D01*
X103402D01*
X86102Y45905D02*
Y44635D01*
X86356Y44381D01*
X86864D01*
X87118Y44635D01*
Y45905D01*
X87626Y45651D02*
X87879Y45905D01*
X88387D01*
X88641Y45651D01*
Y45397D01*
X88387Y45143D01*
X88133D01*
X88387D01*
X88641Y44889D01*
Y44635D01*
X88387Y44381D01*
X87879D01*
X87626Y44635D01*
X101739Y73971D02*
Y72447D01*
X102500D01*
X102754Y72701D01*
Y73717D01*
X102500Y73971D01*
X101739D01*
X103262Y72447D02*
X103770D01*
X103516D01*
Y73971D01*
X103262Y73717D01*
X81732Y74439D02*
Y72916D01*
X82494D01*
X82748Y73170D01*
Y74185D01*
X82494Y74439D01*
X81732D01*
X84272Y72916D02*
X83256D01*
X84272Y73931D01*
Y74185D01*
X84018Y74439D01*
X83510D01*
X83256Y74185D01*
X87094Y51041D02*
Y52565D01*
X87856D01*
X88110Y52311D01*
Y51803D01*
X87856Y51549D01*
X87094D01*
X87602D02*
X88110Y51041D01*
X89633Y52565D02*
X88618D01*
Y51803D01*
X89125Y52057D01*
X89379D01*
X89633Y51803D01*
Y51295D01*
X89379Y51041D01*
X88871D01*
X88618Y51295D01*
X88130Y72762D02*
Y71493D01*
X88384Y71239D01*
X88892D01*
X89146Y71493D01*
Y72762D01*
X90415Y71239D02*
Y72762D01*
X89654Y72001D01*
X90669D01*
X164998Y36169D02*
X164744Y36423D01*
X164236D01*
X163982Y36169D01*
Y35154D01*
X164236Y34900D01*
X164744D01*
X164998Y35154D01*
Y35661D01*
X164490D01*
X166522Y34900D02*
X165506D01*
X166522Y35915D01*
Y36169D01*
X166268Y36423D01*
X165760D01*
X165506Y36169D01*
X162001Y68910D02*
Y67894D01*
X162509Y67386D01*
X163017Y67894D01*
Y68910D01*
X164540Y67386D02*
X163525D01*
X164540Y68402D01*
Y68656D01*
X164286Y68910D01*
X163779D01*
X163525Y68656D01*
X147726Y29743D02*
X147472Y29997D01*
X146964D01*
X146710Y29743D01*
Y28727D01*
X146964Y28473D01*
X147472D01*
X147726Y28727D01*
Y29235D01*
X147218D01*
X148234Y28473D02*
X148742D01*
X148488D01*
Y29997D01*
X148234Y29743D01*
X87017Y53324D02*
Y54848D01*
X87779D01*
X88033Y54594D01*
Y54086D01*
X87779Y53832D01*
X87017D01*
X87525D02*
X88033Y53324D01*
X88541Y54594D02*
X88794Y54848D01*
X89302D01*
X89556Y54594D01*
Y54340D01*
X89302Y54086D01*
X89048D01*
X89302D01*
X89556Y53832D01*
Y53578D01*
X89302Y53324D01*
X88794D01*
X88541Y53578D01*
X161036Y43180D02*
Y44704D01*
X161798D01*
X162052Y44450D01*
Y43942D01*
X161798Y43688D01*
X161036D01*
X161544D02*
X162052Y43180D01*
X163575D02*
X162560D01*
X163575Y44196D01*
Y44450D01*
X163321Y44704D01*
X162813D01*
X162560Y44450D01*
X157912Y60173D02*
Y61696D01*
X158674D01*
X158927Y61442D01*
Y60934D01*
X158674Y60680D01*
X157912D01*
X158420D02*
X158927Y60173D01*
X159435D02*
X159943D01*
X159689D01*
Y61696D01*
X159435Y61442D01*
X79436Y38999D02*
Y40523D01*
X80198D01*
X80452Y40269D01*
Y39761D01*
X80198Y39507D01*
X79436D01*
X80960Y38999D02*
X81468D01*
X81214D01*
Y40523D01*
X80960Y40269D01*
X171413Y50886D02*
Y49362D01*
X172429D01*
X173953Y50632D02*
X173699Y50886D01*
X173191D01*
X172937Y50632D01*
Y50378D01*
X173191Y50124D01*
X173699D01*
X173953Y49870D01*
Y49616D01*
X173699Y49362D01*
X173191D01*
X172937Y49616D01*
X175476Y49362D02*
X174460D01*
X175476Y50378D01*
Y50632D01*
X175222Y50886D01*
X174714D01*
X174460Y50632D01*
X171196Y61171D02*
Y59647D01*
X172212D01*
X173735Y60917D02*
X173481Y61171D01*
X172973D01*
X172720Y60917D01*
Y60663D01*
X172973Y60409D01*
X173481D01*
X173735Y60155D01*
Y59901D01*
X173481Y59647D01*
X172973D01*
X172720Y59901D01*
X174243Y59647D02*
X174751D01*
X174497D01*
Y61171D01*
X174243Y60917D01*
X121894Y75168D02*
X121386D01*
X121640D01*
Y73898D01*
X121386Y73644D01*
X121132D01*
X120879Y73898D01*
X122402Y73644D02*
X122910D01*
X122656D01*
Y75168D01*
X122402Y74914D01*
X96353Y64033D02*
X96099Y64287D01*
X95591D01*
X95337Y64033D01*
Y63017D01*
X95591Y62763D01*
X96099D01*
X96353Y63017D01*
X96861Y62763D02*
X97369D01*
X97115D01*
Y64287D01*
X96861Y64033D01*
X99146Y64287D02*
X98638Y64033D01*
X98130Y63525D01*
Y63017D01*
X98384Y62763D01*
X98892D01*
X99146Y63017D01*
Y63271D01*
X98892Y63525D01*
X98130D01*
X158616Y38877D02*
X158362Y39131D01*
X157854D01*
X157600Y38877D01*
Y37862D01*
X157854Y37608D01*
X158362D01*
X158616Y37862D01*
X159124Y37608D02*
X159632D01*
X159378D01*
Y39131D01*
X159124Y38877D01*
X161409Y37608D02*
X160393D01*
X161409Y38623D01*
Y38877D01*
X161155Y39131D01*
X160647D01*
X160393Y38877D01*
X162069Y49902D02*
X162323Y50155D01*
Y50663D01*
X162069Y50917D01*
X161053D01*
X160799Y50663D01*
Y50155D01*
X161053Y49902D01*
X160799Y49394D02*
Y48886D01*
Y49140D01*
X162323D01*
X162069Y49394D01*
X160799Y48124D02*
Y47616D01*
Y47870D01*
X162323D01*
X162069Y48124D01*
X150749Y43815D02*
X150495Y44069D01*
X149987D01*
X149733Y43815D01*
Y42799D01*
X149987Y42545D01*
X150495D01*
X150749Y42799D01*
X151257Y42545D02*
X151764D01*
X151510D01*
Y44069D01*
X151257Y43815D01*
X152526D02*
X152780Y44069D01*
X153288D01*
X153542Y43815D01*
Y42799D01*
X153288Y42545D01*
X152780D01*
X152526Y42799D01*
Y43815D01*
X164871Y50241D02*
X164617Y50495D01*
X164109D01*
X163855Y50241D01*
Y49225D01*
X164109Y48971D01*
X164617D01*
X164871Y49225D01*
X165379D02*
X165633Y48971D01*
X166141D01*
X166395Y49225D01*
Y50241D01*
X166141Y50495D01*
X165633D01*
X165379Y50241D01*
Y49987D01*
X165633Y49733D01*
X166395D01*
X136271Y68732D02*
X136017Y68986D01*
X135509D01*
X135255Y68732D01*
Y67716D01*
X135509Y67462D01*
X136017D01*
X136271Y67716D01*
X136779Y68732D02*
X137032Y68986D01*
X137540D01*
X137794Y68732D01*
Y68478D01*
X137540Y68224D01*
X137794Y67970D01*
Y67716D01*
X137540Y67462D01*
X137032D01*
X136779Y67716D01*
Y67970D01*
X137032Y68224D01*
X136779Y68478D01*
Y68732D01*
X137032Y68224D02*
X137540D01*
X126669Y42316D02*
X126416Y42570D01*
X125908D01*
X125654Y42316D01*
Y41300D01*
X125908Y41046D01*
X126416D01*
X126669Y41300D01*
X128193Y42570D02*
X127685Y42316D01*
X127177Y41808D01*
Y41300D01*
X127431Y41046D01*
X127939D01*
X128193Y41300D01*
Y41554D01*
X127939Y41808D01*
X127177D01*
X157530Y66294D02*
X157277Y66548D01*
X156769D01*
X156515Y66294D01*
Y65278D01*
X156769Y65024D01*
X157277D01*
X157530Y65278D01*
X159054Y66548D02*
X158038D01*
Y65786D01*
X158546Y66040D01*
X158800D01*
X159054Y65786D01*
Y65278D01*
X158800Y65024D01*
X158292D01*
X158038Y65278D01*
X149555Y59740D02*
X149301Y59994D01*
X148793D01*
X148539Y59740D01*
Y58725D01*
X148793Y58471D01*
X149301D01*
X149555Y58725D01*
X150824Y58471D02*
Y59994D01*
X150063Y59233D01*
X151078D01*
X90906Y64058D02*
X90652Y64312D01*
X90145D01*
X89891Y64058D01*
Y63043D01*
X90145Y62789D01*
X90652D01*
X90906Y63043D01*
X91414Y62789D02*
X91922D01*
X91668D01*
Y64312D01*
X91414Y64058D01*
X92684D02*
X92938Y64312D01*
X93445D01*
X93699Y64058D01*
Y63804D01*
X93445Y63551D01*
X93192D01*
X93445D01*
X93699Y63297D01*
Y63043D01*
X93445Y62789D01*
X92938D01*
X92684Y63043D01*
X86014Y58004D02*
X85760Y58258D01*
X85252D01*
X84998Y58004D01*
Y56988D01*
X85252Y56734D01*
X85760D01*
X86014Y56988D01*
X86521Y56734D02*
X87029D01*
X86775D01*
Y58258D01*
X86521Y58004D01*
X87791Y58258D02*
X88807D01*
Y58004D01*
X87791Y56988D01*
Y56734D01*
X163753Y61950D02*
X163500Y62204D01*
X162992D01*
X162738Y61950D01*
Y60935D01*
X162992Y60681D01*
X163500D01*
X163753Y60935D01*
X164261Y61950D02*
X164515Y62204D01*
X165023D01*
X165277Y61950D01*
Y61696D01*
X165023Y61442D01*
X164769D01*
X165023D01*
X165277Y61188D01*
Y60935D01*
X165023Y60681D01*
X164515D01*
X164261Y60935D01*
X136728Y74244D02*
X136474Y74498D01*
X135966D01*
X135712Y74244D01*
Y73228D01*
X135966Y72974D01*
X136474D01*
X136728Y73228D01*
X138251Y72974D02*
X137236D01*
X138251Y73990D01*
Y74244D01*
X137997Y74498D01*
X137490D01*
X137236Y74244D01*
X76403Y25400D02*
X176403D01*
Y75413D01*
X76403D02*
X176403D01*
X76403Y25400D02*
Y75413D01*
D14*
X141501Y42899D02*
X145401D01*
X141501Y37999D02*
X145401D01*
X141501Y53699D02*
X145401D01*
X141501Y58599D02*
X145401D01*
X101850Y65500D02*
X102200D01*
X101850D02*
Y70800D01*
X102200D01*
X104400Y65500D02*
X104750D01*
Y70800D01*
X104400D02*
X104750D01*
X84400Y70850D02*
X84750D01*
Y65550D02*
Y70850D01*
X84400Y65550D02*
X84750D01*
X81850Y70850D02*
X82200D01*
X81850Y65550D02*
Y70850D01*
Y65550D02*
X82200D01*
X141501Y37999D02*
Y42899D01*
X145401Y37999D02*
Y42899D01*
X141501D02*
X145401D01*
X141501Y37999D02*
X145401D01*
X141501Y53699D02*
X145401D01*
X141501Y58599D02*
X145401D01*
Y53699D02*
Y58599D01*
X141501Y53699D02*
Y58599D01*
X101850Y65500D02*
X104750D01*
X101850D02*
Y70800D01*
X104750D01*
Y65500D02*
Y70800D01*
X81850Y70850D02*
X84750D01*
Y65550D02*
Y70850D01*
X81850Y65550D02*
X84750D01*
X81850D02*
Y70850D01*
D15*
X157759Y59309D02*
X159537D01*
Y56007D02*
Y59309D01*
X157759Y56007D02*
X159537D01*
X157759D02*
Y59309D01*
X157963Y41656D02*
Y44958D01*
Y41656D02*
X159741D01*
Y44958D01*
X157963D02*
X159741D01*
D16*
X88949Y35033D02*
X95451D01*
X88949D02*
Y35795D01*
Y43567D02*
X91895D01*
X92505D01*
X95451D01*
Y42805D02*
Y43567D01*
Y35033D02*
Y35795D01*
X88949Y42805D02*
Y43567D01*
X88153Y65849D02*
Y70199D01*
X98460D01*
Y66567D02*
Y70199D01*
X97399Y65849D02*
X98460Y66567D01*
X88153Y65849D02*
X97399D01*
X95451Y41230D02*
Y42450D01*
X97356D01*
Y41230D02*
Y42450D01*
X95451Y41230D02*
X97356D01*
X95451Y36150D02*
Y37370D01*
X97356D01*
Y36150D02*
Y37370D01*
X95451Y36150D02*
X97356D01*
X88949D02*
Y37370D01*
X87044Y36150D02*
X88949D01*
X87044D02*
Y37370D01*
X88949D01*
Y41230D02*
Y42450D01*
X87044Y41230D02*
X88949D01*
X87044D02*
Y42450D01*
X88949D01*
Y35033D02*
X95451D01*
X88949D02*
Y43567D01*
X91895D01*
X92505D01*
X95451D01*
Y35033D02*
Y43567D01*
D17*
X107429Y44556D02*
Y45555D01*
X106929Y45055D02*
X107929D01*
X117832Y54713D02*
X118832D01*
X118332Y55213D02*
Y54213D01*
D18*
X85003Y35558D02*
X84557Y35825D01*
X84200Y35558D01*
X83843Y35736D01*
X84766Y42588D02*
X84319Y42855D01*
X83962Y42588D01*
X83605Y42766D01*
X101724Y35142D02*
X100117D01*
X101096Y42658D02*
Y41051D01*
X101899Y41854D02*
X100293D01*
X85061Y35564D02*
X84614Y35832D01*
X84257Y35564D01*
X83900Y35742D01*
X84764Y42657D02*
X84318Y42925D01*
X83961Y42657D01*
X83604Y42836D01*
X101865Y35038D02*
X100259D01*
X100989Y42569D02*
Y40962D01*
X101793Y41765D02*
X100186D01*
M02*
