G04*
G04 #@! TF.GenerationSoftware,Altium Limited,Altium Designer,18.0.12 (696)*
G04*
G04 Layer_Color=128*
%FSLAX43Y43*%
%MOMM*%
G71*
G01*
G75*
%ADD11C,0.000*%
%ADD13C,0.254*%
%ADD14C,0.127*%
%ADD16C,0.152*%
%ADD18C,0.198*%
%ADD77C,0.051*%
D11*
X91895Y43567D02*
G03*
X92505Y43567I305J0D01*
G01*
X119606Y75509D02*
X125606D01*
X119606Y61009D02*
X125606D01*
Y75509D01*
X119606Y61009D02*
Y72809D01*
X119606Y71397D02*
Y75509D01*
D13*
X76403Y25400D02*
X176403D01*
Y75413D01*
X76403D02*
X176403D01*
X76403Y25400D02*
Y75413D01*
D14*
X141501Y37999D02*
Y42899D01*
X145401Y37999D02*
Y42899D01*
X141501D02*
X145401D01*
X141501Y37999D02*
X145401D01*
X141501Y53699D02*
X145401D01*
X141501Y58599D02*
X145401D01*
Y53699D02*
Y58599D01*
X141501Y53699D02*
Y58599D01*
X101850Y65500D02*
X104750D01*
X101850D02*
Y70800D01*
X104750D01*
Y65500D02*
Y70800D01*
X81850Y70850D02*
X84750D01*
Y65550D02*
Y70850D01*
X81850Y65550D02*
X84750D01*
X81850D02*
Y70850D01*
D16*
X95451Y41230D02*
Y42450D01*
X97356D01*
Y41230D02*
Y42450D01*
X95451Y41230D02*
X97356D01*
X95451Y36150D02*
Y37370D01*
X97356D01*
Y36150D02*
Y37370D01*
X95451Y36150D02*
X97356D01*
X88949D02*
Y37370D01*
X87044Y36150D02*
X88949D01*
X87044D02*
Y37370D01*
X88949D01*
Y41230D02*
Y42450D01*
X87044Y41230D02*
X88949D01*
X87044D02*
Y42450D01*
X88949D01*
Y35033D02*
X95451D01*
X88949D02*
Y43567D01*
X91895D01*
X92505D01*
X95451D01*
Y35033D02*
Y43567D01*
D18*
X85061Y35564D02*
X84614Y35832D01*
X84257Y35564D01*
X83900Y35742D01*
X84764Y42657D02*
X84318Y42925D01*
X83961Y42657D01*
X83604Y42836D01*
X101865Y35038D02*
X100259D01*
X100989Y42569D02*
Y40962D01*
X101793Y41765D02*
X100186D01*
D77*
X142316Y30937D02*
X143078D01*
X142697Y30556D02*
Y31318D01*
X137236Y30937D02*
X137998D01*
X137617Y30556D02*
Y31318D01*
X132156Y30937D02*
X132918D01*
X132537Y30556D02*
Y31318D01*
X164846Y31344D02*
X165608D01*
X165227Y30963D02*
Y31725D01*
X159766Y31344D02*
X160528D01*
X160147Y30963D02*
Y31725D01*
X154686Y31344D02*
X155448D01*
X155067Y30963D02*
Y31725D01*
X169037Y71806D02*
X169799D01*
X169418Y71425D02*
Y72187D01*
X163957Y71806D02*
X164719D01*
X164338Y71425D02*
Y72187D01*
X158877Y71806D02*
X159639D01*
X159258Y71425D02*
Y72187D01*
X152222Y71425D02*
X152984D01*
X152603Y71044D02*
Y71806D01*
X147142Y71425D02*
X147904D01*
X147523Y71044D02*
Y71806D01*
X142062Y71425D02*
X142824D01*
X142443Y71044D02*
Y71806D01*
X107092Y32614D02*
X107792D01*
X107442Y32264D02*
Y32964D01*
X107092Y40234D02*
X107792D01*
X107442Y39884D02*
Y40584D01*
X105540Y54700D02*
X106240D01*
X105890Y54350D02*
Y55050D01*
X113160Y54700D02*
X113860D01*
X113510Y54350D02*
Y55050D01*
X121806Y65009D02*
X123406D01*
X122606Y64209D02*
Y65809D01*
X121806Y72009D02*
X123406D01*
X122606Y71209D02*
Y72809D01*
X113926Y71628D02*
X114826D01*
X114376Y71178D02*
Y72078D01*
X113926Y69088D02*
X114826D01*
X114376Y68638D02*
Y69538D01*
X113926Y66548D02*
X114826D01*
X114376Y66098D02*
Y66998D01*
X79807Y35958D02*
X80569D01*
X80188Y35577D02*
Y36339D01*
X79807Y41758D02*
X80569D01*
X80188Y41377D02*
Y42139D01*
X90170Y67100D02*
X91470D01*
X90820Y66450D02*
Y67750D01*
X92710Y67100D02*
X94010D01*
X93360Y66450D02*
Y67750D01*
X95250Y67100D02*
X96550D01*
X95900Y66450D02*
Y67750D01*
X172001Y57389D02*
X172901D01*
X172451Y56939D02*
Y57839D01*
X172001Y54849D02*
X172901D01*
X172451Y54399D02*
Y55299D01*
X172201Y47089D02*
X173101D01*
X172651Y46639D02*
Y47539D01*
X172201Y44549D02*
X173101D01*
X172651Y44099D02*
Y44999D01*
X130581Y60731D02*
X131293D01*
X130937Y60376D02*
Y61087D01*
X126670Y60884D02*
X127381D01*
X127025Y60528D02*
Y61239D01*
X93828Y51816D02*
X94539D01*
X94183Y51460D02*
Y52172D01*
X83591Y59334D02*
X84303D01*
X83947Y58979D02*
Y59690D01*
X90145Y60096D02*
X90856D01*
X90500Y59741D02*
Y60452D01*
X96111Y60122D02*
X96822D01*
X96466Y59766D02*
Y60477D01*
X98535Y36779D02*
X99535D01*
X99035Y36279D02*
Y37279D01*
X116611Y39014D02*
X117323D01*
X116967Y38659D02*
Y39370D01*
X130519Y74001D02*
X131231D01*
X130875Y73646D02*
Y74357D01*
X122403Y69139D02*
X123114D01*
X122758Y68783D02*
Y69494D01*
X142824Y59690D02*
X143535D01*
X143180Y59334D02*
Y60046D01*
X140005Y52578D02*
X140716D01*
X140360Y52222D02*
Y52934D01*
X135433Y44247D02*
X136144D01*
X135788Y43891D02*
Y44602D01*
X138303Y43307D02*
X139014D01*
X138659Y42951D02*
Y43663D01*
X153834Y36093D02*
X154546D01*
X154190Y35738D02*
Y36449D01*
X129464Y50267D02*
X130175D01*
X129819Y49911D02*
Y50622D01*
X125959D02*
X126670D01*
X126314Y50267D02*
Y50978D01*
X148057Y42875D02*
X148768D01*
X148412Y42520D02*
Y43231D01*
X151638Y47371D02*
X152349D01*
X151994Y47015D02*
Y47727D01*
X140030Y36982D02*
X140741D01*
X140386Y36627D02*
Y37338D01*
X155334Y56642D02*
X156046D01*
X155690Y56286D02*
Y56998D01*
X155067Y40945D02*
X155778D01*
X155423Y40589D02*
Y41300D01*
X136881Y58166D02*
X137592D01*
X137236Y57810D02*
Y58522D01*
X134864Y57058D02*
X135576D01*
X135220Y56702D02*
Y57414D01*
X147857Y63758D02*
X148568D01*
X148213Y63402D02*
Y64113D01*
M02*
